<svg xmlns="http://www.w3.org/2000/svg" width="600" height="260" viewBox="0 0 600 260" role="img" aria-labelledby="title"><title id="title">ATLÉTICA FIPP — Sales management system for a university athletics club. (Next.js, TypeScript, PostgreSQL)</title><defs><linearGradient id="chrome" x1="0" y1="0" x2="0" y2="1"><stop offset="0" stop-color="#FFFFFF"/><stop offset="0.42" stop-color="#9AA0AE"/><stop offset="0.5" stop-color="#3A3F4B"/><stop offset="0.58" stop-color="#E8ECF4"/><stop offset="1" stop-color="#6B7080"/></linearGradient><linearGradient id="holo" x1="0" y1="0" x2="1" y2="0"><stop offset="0" stop-color="#B14CFF"/><stop offset=".5" stop-color="#2DE2E6"/><stop offset="1" stop-color="#FF5FD2"/></linearGradient><path id="mono13-134" d="M2.2 0L1.1 0L1.1-9.1L4.4-9.1Q5.3-9.1 5.9-8.8Q6.5-8.4 6.8-7.9Q7.1-7.3 7.1-6.6L7.1-6.6L7.1-6.2Q7.1-5.6 6.8-5.0Q6.5-4.4 5.9-4.1Q5.3-3.7 4.4-3.7L4.4-3.7L2.2-3.7L2.2 0ZM2.2-8.1L2.2-4.8L4.2-4.8Q6.0-4.8 6.0-6.3L6.0-6.3L6.0-6.6Q6.0-7.2 5.6-7.7Q5.1-8.1 4.2-8.1L4.2-8.1L2.2-8.1Z"/><path id="mono13-137" d="M2.2 0L1.1 0L1.1-9.1L4.4-9.1Q5.3-9.1 5.9-8.8Q6.5-8.4 6.8-7.9Q7.1-7.3 7.1-6.6L7.1-6.6L7.1-6.2Q7.1-5.7 6.9-5.2Q6.6-4.7 6.0-4.4L6.0-4.4L6.0-4.3Q6.4-4.2 6.6-4.0Q6.8-3.7 6.8-3.3L6.8-3.3L6.8 0L5.7 0L5.7-3.0Q5.7-3.4 5.6-3.6Q5.4-3.7 5.0-3.7L5.0-3.7L2.2-3.7L2.2 0ZM2.2-8.1L2.2-4.8L4.2-4.8Q6.0-4.8 6.0-6.3L6.0-6.3L6.0-6.6Q6.0-7.2 5.6-7.7Q5.1-8.1 4.2-8.1L4.2-8.1L2.2-8.1Z"/><path id="mono13-108" d="M4.0 0.2L4.0 0.2Q2.5 0.2 1.6-0.8Q0.8-1.7 0.8-3.5L0.8-3.5L0.8-5.6Q0.8-7.3 1.6-8.3Q2.5-9.3 4.0-9.3L4.0-9.3Q5.5-9.3 6.3-8.3Q7.2-7.3 7.2-5.6L7.2-5.6L7.2-3.5Q7.2-1.7 6.3-0.8Q5.5 0.2 4.0 0.2ZM4.0-0.8L4.0-0.8Q5.0-0.8 5.6-1.6Q6.1-2.3 6.1-3.6L6.1-3.6L6.1-5.5Q6.1-6.7 5.6-7.5Q5.0-8.3 4.0-8.3L4.0-8.3Q2.9-8.3 2.4-7.5Q1.9-6.7 1.9-5.5L1.9-5.5L1.9-3.6Q1.9-2.3 2.4-1.6Q2.9-0.8 4.0-0.8Z"/><path id="mono13-85" d="M3.8 0.2L3.8 0.2Q2.5 0.2 1.7-0.6Q0.9-1.3 0.9-2.7L0.9-2.7L0.9-3.4L2.0-3.4L2.0-2.7Q2.0-1.9 2.5-1.4Q2.9-0.8 3.8-0.8L3.8-0.8Q4.7-0.8 5.1-1.4Q5.5-1.9 5.5-2.7L5.5-2.7L5.5-8.1L4.5-8.1L4.5-9.1L7.3-9.1L7.3-8.1L6.6-8.1L6.6-2.7Q6.6-1.3 5.9-0.6Q5.2 0.2 3.8 0.2Z"/><path id="mono13-39" d="M6.8 0L1.2 0L1.2-9.1L6.7-9.1L6.7-8.1L2.3-8.1L2.3-5.1L6.7-5.1L6.7-4.1L2.3-4.1L2.3-1.0L6.8-1.0L6.8 0Z"/><path id="mono13-27" d="M4.0 0.2L4.0 0.2Q2.5 0.2 1.7-0.8Q0.8-1.7 0.8-3.5L0.8-3.5L0.8-5.6Q0.8-7.3 1.7-8.3Q2.5-9.3 4.0-9.3L4.0-9.3Q5.1-9.3 5.8-8.8Q6.5-8.4 6.9-7.7Q7.2-6.9 7.2-6.0L7.2-6.0L7.2-5.8L6.1-5.8L6.1-6.0Q6.1-6.6 5.9-7.1Q5.7-7.6 5.2-7.9Q4.8-8.3 4.0-8.3L4.0-8.3Q3.0-8.3 2.5-7.5Q1.9-6.7 1.9-5.5L1.9-5.5L1.9-3.6Q1.9-2.3 2.5-1.6Q3.0-0.8 4.0-0.8L4.0-0.8Q4.8-0.8 5.2-1.2Q5.7-1.5 5.9-2.0Q6.1-2.5 6.1-3.1L6.1-3.1L6.1-3.3L7.2-3.3L7.2-3.1Q7.2-2.2 6.9-1.4Q6.5-0.7 5.8-0.3Q5.1 0.2 4.0 0.2Z"/><path id="mono13-153" d="M4.5 0L3.4 0L3.4-8.1L0.8-8.1L0.8-9.1L7.2-9.1L7.2-8.1L4.5-8.1L4.5 0Z"/><path id="mono13-608" d="M7.0 1.6L0.9 1.6L0.9 0.6L7.0 0.6L7.0 1.6Z"/><path id="mono13-516" d="M4.0 0.2L4.0 0.2Q2.5 0.2 1.6-0.8Q0.8-1.7 0.8-3.5L0.8-3.5L0.8-5.6Q0.8-7.3 1.6-8.3Q2.5-9.3 4.0-9.3L4.0-9.3Q5.5-9.3 6.3-8.3Q7.2-7.3 7.2-5.6L7.2-5.6L7.2-3.5Q7.2-1.7 6.3-0.8Q5.5 0.2 4.0 0.2ZM4.0-0.8L4.0-0.8Q5.0-0.8 5.6-1.5Q6.1-2.3 6.1-3.6L6.1-3.6L6.1-5.5Q6.1-6.7 5.6-7.5Q5.0-8.3 4.0-8.3L4.0-8.3Q2.9-8.3 2.4-7.5Q1.9-6.7 1.9-5.5L1.9-5.5L1.9-3.6Q1.9-2.3 2.4-1.5Q2.9-0.8 4.0-0.8ZM4.0-3.7L4.0-3.7Q3.7-3.7 3.4-4.0Q3.1-4.2 3.1-4.6L3.1-4.6Q3.1-4.9 3.4-5.1Q3.7-5.4 4.0-5.4L4.0-5.4Q4.3-5.4 4.6-5.1Q4.8-4.9 4.8-4.6L4.8-4.6Q4.8-4.2 4.6-4.0Q4.3-3.7 4.0-3.7Z"/><path id="mono13-521" d="M4.1 0.2L4.1 0.2Q3.1 0.2 2.3-0.2Q1.6-0.6 1.2-1.3Q0.9-2.0 0.9-2.9L0.9-2.9L0.9-3.3L2.0-3.3L2.0-3.0Q2.0-1.9 2.6-1.4Q3.2-0.8 4.1-0.8L4.1-0.8Q4.8-0.8 5.3-1.2Q5.8-1.5 6.0-2.0Q6.2-2.5 6.2-3.1L6.2-3.1L6.2-3.2Q6.2-3.8 6.0-4.2Q5.8-4.6 5.4-4.9Q4.9-5.1 4.4-5.1L4.4-5.1Q3.8-5.1 3.5-4.9Q3.1-4.6 3.1-4.3L3.1-4.3L1.0-4.3L1.0-9.1L6.7-9.1L6.7-8.1L2.1-8.1L2.1-4.8L2.2-4.8Q2.5-5.4 3.1-5.8Q3.6-6.2 4.5-6.2L4.5-6.2Q5.3-6.2 5.9-5.8Q6.6-5.4 7.0-4.8Q7.3-4.1 7.3-3.3L7.3-3.3L7.3-3.0Q7.3-2.2 7.0-1.4Q6.6-0.7 5.9-0.3Q5.2 0.2 4.1 0.2Z"/><path id="monoBold13-137" d="M2.7 0L0.9 0L0.9-9.1L4.4-9.1Q5.4-9.1 6.0-8.8Q6.6-8.4 7.0-7.9Q7.3-7.3 7.3-6.6L7.3-6.6L7.3-6.3Q7.3-5.7 7.0-5.2Q6.7-4.7 6.1-4.5L6.1-4.5L6.1-4.3Q6.5-4.2 6.8-3.9Q7.1-3.6 7.1-3.1L7.1-3.1L7.1 0L5.3 0L5.3-2.7Q5.3-3.0 5.2-3.2Q5.0-3.4 4.6-3.4L4.6-3.4L2.7-3.4L2.7 0ZM2.7-7.5L2.7-5.1L4.3-5.1Q4.9-5.1 5.3-5.4Q5.6-5.7 5.6-6.2L5.6-6.2L5.6-6.3Q5.6-6.8 5.3-7.1Q4.9-7.5 4.3-7.5L4.3-7.5L2.7-7.5Z"/><path id="monoBold13-39" d="M7.0 0L1.1 0L1.1-9.1L6.8-9.1L6.8-7.5L2.8-7.5L2.8-5.4L6.7-5.4L6.7-3.7L2.8-3.7L2.8-1.6L7.0-1.6L7.0 0Z"/><path id="monoBold13-134" d="M2.7 0L0.9 0L0.9-9.1L4.5-9.1Q5.4-9.1 6.1-8.7Q6.7-8.3 7.0-7.7Q7.3-7.1 7.3-6.5L7.3-6.5L7.3-6.1Q7.3-5.5 7.0-4.8Q6.7-4.2 6.1-3.8Q5.4-3.4 4.5-3.4L4.5-3.4L2.7-3.4L2.7 0ZM2.7-7.5L2.7-5.1L4.3-5.1Q4.9-5.1 5.2-5.4Q5.6-5.7 5.6-6.2L5.6-6.2L5.6-6.3Q5.6-6.8 5.2-7.2Q4.9-7.5 4.3-7.5L4.3-7.5L2.7-7.5Z"/><path id="monoBold13-108" d="M4.0 0.2L4.0 0.2Q2.4 0.2 1.5-0.8Q0.6-1.7 0.6-3.5L0.6-3.5L0.6-5.6Q0.6-7.3 1.5-8.3Q2.4-9.3 4.0-9.3L4.0-9.3Q5.5-9.3 6.4-8.3Q7.3-7.3 7.3-5.6L7.3-5.6L7.3-3.5Q7.3-1.7 6.4-0.8Q5.5 0.2 4.0 0.2ZM4.0-1.4L4.0-1.4Q4.9-1.4 5.3-2.0Q5.6-2.5 5.6-3.4L5.6-3.4L5.6-5.7Q5.6-6.2 5.4-6.7Q5.3-7.2 4.9-7.4Q4.6-7.7 4.0-7.7L4.0-7.7Q3.4-7.7 3.0-7.4Q2.7-7.2 2.5-6.7Q2.3-6.2 2.3-5.7L2.3-5.7L2.3-3.4Q2.3-2.5 2.7-2.0Q3.0-1.4 4.0-1.4Z"/><path id="mono18-144" d="M5.8 0.3L5.8 0.3Q4.1 0.3 3.0-0.4Q1.9-1.0 1.4-2.0Q0.8-3.0 0.8-4.4L0.8-4.4L0.8-4.9L2.3-4.9L2.3-4.5Q2.3-2.8 3.2-2.0Q4.2-1.2 5.8-1.2L5.8-1.2Q7.2-1.2 7.9-1.8Q8.6-2.4 8.6-3.4L8.6-3.4L8.6-3.5Q8.6-4.5 7.9-5.0Q7.1-5.6 5.5-5.8L5.5-5.8Q3.6-6.1 2.5-6.9Q1.4-7.7 1.4-9.3L1.4-9.3L1.4-9.5Q1.4-10.5 1.9-11.2Q2.4-12.0 3.3-12.4Q4.3-12.9 5.5-12.9L5.5-12.9Q6.9-12.9 7.9-12.3Q8.9-11.8 9.5-11.0Q10.0-10.1 10.0-9.1L10.0-9.1L10.0-8.3L8.5-8.3L8.5-9.0Q8.5-9.8 8.1-10.3Q7.7-10.9 7.0-11.2Q6.3-11.4 5.5-11.4L5.5-11.4Q4.8-11.4 4.2-11.2Q3.6-11.0 3.2-10.5Q2.9-10.1 2.9-9.5L2.9-9.5L2.9-9.3Q2.9-8.3 3.7-7.8Q4.6-7.3 6.2-7.1L6.2-7.1Q8.2-6.8 9.2-5.9Q10.1-5.1 10.1-3.6L10.1-3.6L10.1-3.4Q10.1-1.8 9.0-0.8Q7.9 0.3 5.8 0.3Z"/><path id="mono18-216" d="M5.0 0.3L5.0 0.3Q3.9 0.3 2.9-0.3Q2.0-0.8 1.4-1.8Q0.8-2.8 0.8-4.3L0.8-4.3L0.8-4.6Q0.8-6.1 1.4-7.1Q2.0-8.1 2.9-8.6Q3.9-9.2 5.0-9.2L5.0-9.2Q5.9-9.2 6.7-8.8Q7.4-8.4 7.8-7.5L7.8-7.5L8.0-7.5L8.0-8.9L9.5-8.9L9.5-1.8Q9.5-1.3 9.9-1.3L9.9-1.3L10.4-1.3L10.4 0L9.4 0Q8.9 0 8.5-0.4Q8.0-0.7 8.0-1.5L8.0-1.5L7.8-1.5Q7.4-0.6 6.6-0.2Q5.9 0.3 5.0 0.3ZM5.2-1.1L5.2-1.1Q6.4-1.1 7.2-2.0Q8.0-2.9 8.0-4.4L8.0-4.4L8.0-4.6Q8.0-5.5 7.7-6.3Q7.3-7.0 6.6-7.4Q6.0-7.8 5.2-7.8L5.2-7.8Q4.3-7.8 3.7-7.4Q3.0-7.0 2.7-6.3Q2.3-5.6 2.3-4.6L2.3-4.6L2.3-4.3Q2.3-2.8 3.1-1.9Q3.9-1.1 5.2-1.1Z"/><path id="mono18-313" d="M9.5 0L1.6 0L1.6-1.3L4.8-1.3L4.8-11.3L1.7-11.3L1.7-12.6L6.2-12.6L6.2-1.3L9.5-1.3L9.5 0Z"/><path id="mono18-257" d="M5.5 0.3L5.5 0.3Q4.3 0.3 3.3-0.3Q2.3-0.9 1.7-2.0Q1.2-3.0 1.2-4.4L1.2-4.4L1.2-4.8Q1.2-6.0 1.8-7.0Q2.3-8.0 3.3-8.6Q4.3-9.2 5.6-9.2L5.6-9.2Q6.7-9.2 7.5-8.8Q8.3-8.4 8.8-7.8Q9.3-7.2 9.5-6.5Q9.8-5.8 9.8-5.2L9.8-5.2L9.8-4.0L2.6-4.0Q2.6-2.7 3.4-1.9Q4.2-1.1 5.6-1.1L5.6-1.1Q6.9-1.1 7.5-1.6Q8.1-2.2 8.4-2.9L8.4-2.9L9.7-2.6Q9.3-1.3 8.3-0.5Q7.3 0.3 5.5 0.3ZM2.6-5.3L2.6-5.3L8.4-5.3Q8.4-6.1 7.9-6.7Q7.5-7.2 6.9-7.5Q6.3-7.8 5.6-7.8L5.6-7.8Q4.4-7.8 3.6-7.1Q2.8-6.4 2.6-5.3Z"/><path id="mono18-372" d="M5.7 0.3L5.7 0.3Q4.3 0.3 3.4-0.2Q2.5-0.7 2.1-1.4Q1.6-2.2 1.6-3.0L1.6-3.0L2.9-3.3Q3.0-2.3 3.7-1.7Q4.4-1.0 5.6-1.0L5.6-1.0Q6.6-1.0 7.2-1.4Q7.8-1.8 7.8-2.5L7.8-2.5Q7.8-3.3 7.2-3.6Q6.6-3.9 5.3-4.0L5.3-4.0Q3.7-4.1 2.9-4.7Q2.1-5.4 2.1-6.5L2.1-6.5L2.1-6.6Q2.1-7.5 2.5-8.0Q3.0-8.6 3.7-8.9Q4.5-9.2 5.3-9.2L5.3-9.2Q6.5-9.2 7.3-8.8Q8.0-8.4 8.5-7.7Q8.9-7.1 9.0-6.4L9.0-6.4L7.6-6.1Q7.6-6.9 6.9-7.4Q6.3-7.9 5.4-7.9L5.4-7.9Q4.6-7.9 4.0-7.6Q3.4-7.3 3.4-6.6L3.4-6.6Q3.4-6.0 4.0-5.6Q4.5-5.3 6.0-5.2L6.0-5.2Q7.5-5.1 8.4-4.4Q9.2-3.8 9.2-2.6L9.2-2.6L9.2-2.5Q9.2-1.2 8.2-0.5Q7.2 0.3 5.7 0.3Z"/><path id="mono18-321" d="M2.3 0L0.9 0L0.9-8.9L2.3-8.9L2.3-8.0L2.5-8.0Q2.7-8.6 3.2-8.9Q3.6-9.2 4.2-9.2L4.2-9.2Q4.9-9.2 5.3-8.8Q5.7-8.5 5.9-8.0L5.9-8.0L6.1-8.0Q6.7-9.2 8.0-9.2L8.0-9.2Q9.1-9.2 9.6-8.5Q10.2-7.9 10.2-6.9L10.2-6.9L10.2 0L8.7 0L8.7-6.4Q8.7-7.0 8.5-7.4Q8.2-7.8 7.5-7.8L7.5-7.8Q6.9-7.8 6.6-7.4Q6.2-6.9 6.2-6.0L6.2-6.0L6.2 0L4.8 0L4.8-6.5Q4.8-7.1 4.5-7.5Q4.2-7.8 3.6-7.8L3.6-7.8Q3.0-7.8 2.6-7.4Q2.3-6.9 2.3-6.2L2.3-6.2L2.3 0Z"/><path id="mono18-324" d="M3.0 0L1.6 0L1.6-8.9L3.0-8.9L3.0-7.4L3.2-7.4Q4.0-9.2 6.1-9.2L6.1-9.2Q7.6-9.2 8.5-8.2Q9.5-7.3 9.5-5.3L9.5-5.3L9.5 0L8.0 0L8.0-5.0Q8.0-6.4 7.4-7.1Q6.8-7.8 5.7-7.8L5.7-7.8Q4.4-7.8 3.7-7.0Q3.0-6.1 3.0-4.6L3.0-4.6L3.0 0Z"/><path id="mono18-278" d="M8.4 3.6L2.6 3.6L2.6 2.3L7.9 2.3Q8.4 2.3 8.4 1.8L8.4 1.8L8.4-1.4L8.1-1.4Q7.7-0.6 7.0-0.2Q6.2 0.3 5.3 0.3L5.3 0.3Q4.1 0.3 3.1-0.3Q2.1-0.8 1.5-1.8Q0.9-2.9 0.9-4.3L0.9-4.3L0.9-4.6Q0.9-6.1 1.5-7.1Q2.2-8.1 3.2-8.6Q4.1-9.2 5.3-9.2L5.3-9.2Q6.3-9.2 7.0-8.8Q7.7-8.3 8.1-7.5L8.1-7.5L8.4-7.5L8.4-8.9L9.8-8.9L9.8 2.2Q9.8 2.8 9.4 3.2Q9.0 3.6 8.4 3.6L8.4 3.6ZM5.4-1.1L5.4-1.1Q6.2-1.1 6.9-1.5Q7.6-1.9 8.0-2.6Q8.4-3.4 8.4-4.4L8.4-4.4L8.4-4.6Q8.4-5.5 7.9-6.3Q7.5-7.0 6.9-7.4Q6.2-7.8 5.4-7.8L5.4-7.8Q4.5-7.8 3.8-7.4Q3.2-7.0 2.8-6.3Q2.4-5.6 2.4-4.6L2.4-4.6L2.4-4.3Q2.4-3.3 2.8-2.6Q3.2-1.9 3.8-1.5Q4.5-1.1 5.4-1.1Z"/><path id="mono18-382" d="M8.5 0L5.5 0Q4.8 0 4.5-0.4Q4.1-0.8 4.1-1.4L4.1-1.4L4.1-7.6L1.3-7.6L1.3-8.9L4.1-8.9L4.1-12.6L5.5-12.6L5.5-8.9L8.9-8.9L8.9-7.6L5.5-7.6L5.5-1.8Q5.5-1.3 6.0-1.3L6.0-1.3L8.5-1.3L8.5 0Z"/><path id="mono18-424" d="M8.1 3.6L3.0 3.6L3.0 2.3L7.6 2.3Q8.0 2.3 8.0 1.8L8.0 1.8L8.0-1.6L7.8-1.6Q7.4-0.8 6.7-0.3Q6.0 0.3 4.9 0.3L4.9 0.3Q3.4 0.3 2.5-0.7Q1.6-1.7 1.6-3.6L1.6-3.6L1.6-8.9L3.0-8.9L3.0-3.8Q3.0-2.4 3.5-1.7Q4.1-1.1 5.3-1.1L5.3-1.1Q6.6-1.1 7.3-2.0Q8.0-2.8 8.0-4.3L8.0-4.3L8.0-8.9L9.5-8.9L9.5 2.2Q9.5 2.8 9.1 3.2Q8.7 3.6 8.1 3.6L8.1 3.6Z"/><path id="mono18-277" d="M5.6 0L4.2 0L4.2-7.6L1.5-7.6L1.5-8.9L4.2-8.9L4.2-11.2Q4.2-11.8 4.6-12.2Q5.0-12.6 5.6-12.6L5.6-12.6L9.1-12.6L9.1-11.3L6.1-11.3Q5.6-11.3 5.6-10.8L5.6-10.8L5.6-8.9L9.4-8.9L9.4-7.6L5.6-7.6L5.6 0Z"/><path id="mono18-334" d="M5.5 0.3L5.5 0.3Q4.3 0.3 3.3-0.3Q2.3-0.8 1.7-1.9Q1.0-2.9 1.0-4.4L1.0-4.4L1.0-4.6Q1.0-6.0 1.7-7.1Q2.3-8.1 3.3-8.6Q4.3-9.2 5.5-9.2L5.5-9.2Q6.7-9.2 7.7-8.6Q8.7-8.1 9.4-7.1Q10.0-6.0 10.0-4.6L10.0-4.6L10.0-4.4Q10.0-2.9 9.4-1.9Q8.7-0.8 7.7-0.3Q6.7 0.3 5.5 0.3ZM5.5-1.1L5.5-1.1Q6.4-1.1 7.1-1.5Q7.7-1.9 8.1-2.6Q8.6-3.3 8.6-4.4L8.6-4.4L8.6-4.6Q8.6-5.5 8.1-6.3Q7.7-7.0 7.0-7.4Q6.4-7.8 5.5-7.8L5.5-7.8Q4.7-7.8 4.0-7.4Q3.3-7.0 2.9-6.3Q2.5-5.5 2.5-4.6L2.5-4.6L2.5-4.4Q2.5-3.3 2.9-2.6Q3.3-1.9 4.0-1.5Q4.7-1.1 5.5-1.1Z"/><path id="mono18-364" d="M6.6 0L0.8 0L0.8-1.3L2.9-1.3L2.9-7.6L1.1-7.6L1.1-8.9L4.3-8.9L4.3-7.7L4.5-7.7Q4.9-8.5 5.5-8.8Q6.1-9.2 6.9-9.2L6.9-9.2Q8.3-9.2 9.1-8.3Q9.9-7.4 10.0-5.7L10.0-5.7L8.5-5.5Q8.5-6.8 7.9-7.3Q7.3-7.8 6.5-7.8L6.5-7.8Q5.4-7.8 4.8-7.0Q4.3-6.2 4.3-5.1L4.3-5.1L4.3-1.3L6.6-1.3L6.6 0Z"/><path id="mono18-391" d="M4.8 0.3L4.8 0.3Q3.3 0.3 2.4-0.7Q1.5-1.7 1.5-3.6L1.5-3.6L1.5-8.9L2.9-8.9L2.9-3.8Q2.9-2.4 3.4-1.7Q4.0-1.1 5.2-1.1L5.2-1.1Q6.5-1.1 7.2-2.0Q7.9-2.8 7.9-4.3L7.9-4.3L7.9-8.9L9.3-8.9L9.3 0L7.9 0L7.9-1.6L7.7-1.6Q7.3-0.8 6.6-0.3Q5.9 0.3 4.8 0.3Z"/><path id="mono18-292" d="M5.6-10.3L5.6-10.3Q5.1-10.3 4.7-10.7Q4.3-11.1 4.3-11.6L4.3-11.6Q4.3-12.1 4.7-12.5Q5.1-12.9 5.6-12.9L5.6-12.9Q6.1-12.9 6.5-12.5Q6.9-12.1 6.9-11.6L6.9-11.6Q6.9-11.1 6.5-10.7Q6.1-10.3 5.6-10.3ZM9.2 0L1.8 0L1.8-1.3L4.9-1.3L4.9-7.6L2.1-7.6L2.1-8.9L6.3-8.9L6.3-1.3L9.2-1.3L9.2 0Z"/><path id="mono18-415" d="M6.9 0L4.1 0L1.0-8.9L2.6-8.9L5.4-0.6L5.6-0.6L8.3-8.9L10.0-8.9L6.9 0Z"/><path id="mono18-286" d="M3.0 0L1.6 0L1.6-12.6L3.0-12.6L3.0-7.3L3.2-7.3Q3.6-8.2 4.3-8.7Q5.1-9.2 6.2-9.2L6.2-9.2Q7.6-9.2 8.5-8.2Q9.5-7.3 9.5-5.3L9.5-5.3L9.5 0L8.0 0L8.0-5.0Q8.0-6.4 7.4-7.1Q6.8-7.8 5.7-7.8L5.7-7.8Q4.4-7.8 3.7-7.0Q3.0-6.1 3.0-4.6L3.0-4.6L3.0 0Z"/><path id="mono18-245" d="M5.7 0.3L5.7 0.3Q4.4 0.3 3.4-0.3Q2.3-0.8 1.7-1.8Q1.1-2.9 1.1-4.3L1.1-4.3L1.1-4.5Q1.1-6.0 1.7-7.0Q2.3-8.1 3.4-8.6Q4.4-9.2 5.7-9.2L5.7-9.2Q6.8-9.2 7.7-8.7Q8.6-8.3 9.2-7.5Q9.7-6.8 9.9-5.8L9.9-5.8L8.5-5.4Q8.4-6.1 8.1-6.6Q7.7-7.2 7.1-7.5Q6.5-7.8 5.6-7.8L5.6-7.8Q4.8-7.8 4.1-7.4Q3.3-7.0 2.9-6.3Q2.5-5.5 2.5-4.5L2.5-4.5L2.5-4.3Q2.5-3.3 2.9-2.6Q3.3-1.9 4.1-1.5Q4.8-1.1 5.7-1.1L5.7-1.1Q6.6-1.1 7.2-1.4Q7.8-1.8 8.1-2.3Q8.4-2.9 8.5-3.5L8.5-3.5L9.9-3.2Q9.7-2.2 9.2-1.4Q8.6-0.6 7.7-0.2Q6.8 0.3 5.7 0.3Z"/><path id="mono18-243" d="M5.9 0.3L5.9 0.3Q5.1 0.3 4.2-0.2Q3.3-0.6 2.9-1.4L2.9-1.4L2.6-1.4L2.6 0L1.2 0L1.2-12.6L2.6-12.6L2.6-7.5L2.9-7.5Q3.3-8.3 4.2-8.8Q5.0-9.2 6.0-9.2L6.0-9.2Q7.1-9.2 8.0-8.6Q8.9-8.1 9.5-7.1Q10.1-6.1 10.1-4.6L10.1-4.6L10.1-4.3Q10.1-2.8 9.5-1.8Q8.9-0.8 8.0-0.3Q7.1 0.3 5.9 0.3ZM5.6-1.1L5.6-1.1Q6.9-1.1 7.8-1.9Q8.6-2.8 8.6-4.3L8.6-4.3L8.6-4.6Q8.6-5.6 8.2-6.3Q7.8-7.0 7.2-7.4Q6.5-7.8 5.6-7.8L5.6-7.8Q4.8-7.8 4.1-7.4Q3.5-7.0 3.1-6.3Q2.6-5.5 2.6-4.6L2.6-4.6L2.6-4.4Q2.6-3.4 3.0-2.6Q3.4-1.9 4.1-1.5Q4.8-1.1 5.6-1.1Z"/><path id="mono18-588" d="M5.5 0.3L5.5 0.3Q5.0 0.3 4.6-0.1Q4.2-0.5 4.2-1.0L4.2-1.0Q4.2-1.5 4.6-1.9Q5.0-2.3 5.5-2.3L5.5-2.3Q6.0-2.3 6.4-1.9Q6.8-1.5 6.8-1.0L6.8-1.0Q6.8-0.5 6.4-0.1Q6.0 0.3 5.5 0.3Z"/><path id="mono14-99" d="M2.2 0L1.0 0L1.0-9.8L3.4-9.8L6.2-0.5L6.4-0.5L6.4-9.8L7.5-9.8L7.5 0L5.2 0L2.4-9.3L2.2-9.3L2.2 0Z"/><path id="mono14-257" d="M4.3 0.2L4.3 0.2Q3.3 0.2 2.6-0.3Q1.8-0.7 1.4-1.5Q0.9-2.3 0.9-3.4L0.9-3.4L0.9-3.7Q0.9-4.7 1.4-5.5Q1.8-6.2 2.6-6.7Q3.4-7.1 4.3-7.1L4.3-7.1Q5.2-7.1 5.8-6.8Q6.4-6.5 6.8-6.0Q7.2-5.6 7.4-5.0Q7.6-4.5 7.6-4.0L7.6-4.0L7.6-3.1L2.0-3.1Q2.1-2.1 2.7-1.5Q3.3-0.8 4.3-0.8L4.3-0.8Q5.3-0.8 5.8-1.3Q6.3-1.7 6.5-2.3L6.5-2.3L7.5-2.0Q7.2-1.0 6.4-0.4Q5.7 0.2 4.3 0.2ZM2.0-4.1L2.0-4.1L6.5-4.1Q6.5-4.7 6.2-5.2Q5.9-5.6 5.4-5.9Q4.9-6.1 4.3-6.1L4.3-6.1Q3.4-6.1 2.8-5.5Q2.2-5.0 2.0-4.1Z"/><path id="mono14-423" d="M2.3 0L1.0 0L3.2-3.5L3.2-3.6L1.2-6.9L2.4-6.9L4.2-4.1L4.4-4.1L6.2-6.9L7.4-6.9L5.4-3.6L5.4-3.5L7.6 0L6.3 0L4.4-3.1L4.2-3.1L2.3 0Z"/><path id="mono14-382" d="M6.6 0L4.2 0Q3.8 0 3.5-0.3Q3.2-0.6 3.2-1.1L3.2-1.1L3.2-5.9L1.0-5.9L1.0-6.9L3.2-6.9L3.2-9.8L4.3-9.8L4.3-6.9L6.9-6.9L6.9-5.9L4.3-5.9L4.3-1.4Q4.3-1.0 4.6-1.0L4.6-1.0L6.6-1.0L6.6 0Z"/><path id="mono14-588" d="M4.3 0.2L4.3 0.2Q3.9 0.2 3.6-0.1Q3.3-0.4 3.3-0.8L3.3-0.8Q3.3-1.2 3.6-1.5Q3.9-1.8 4.3-1.8L4.3-1.8Q4.7-1.8 5.0-1.5Q5.3-1.2 5.3-0.8L5.3-0.8Q5.3-0.4 5.0-0.1Q4.7 0.2 4.3 0.2Z"/><path id="mono14-306" d="M5.3-8.0L5.3-8.0Q4.9-8.0 4.6-8.3Q4.3-8.6 4.3-9.0L4.3-9.0Q4.3-9.4 4.6-9.7Q4.9-10.0 5.3-10.0L5.3-10.0Q5.7-10.0 6.0-9.7Q6.3-9.4 6.3-9.0L6.3-9.0Q6.3-8.6 6.0-8.3Q5.7-8.0 5.3-8.0ZM4.8 2.8L1.6 2.8L1.6 1.8L4.4 1.8Q4.7 1.8 4.7 1.4L4.7 1.4L4.7-5.9L2.0-5.9L2.0-6.9L5.8-6.9L5.8 1.7Q5.8 2.2 5.5 2.5Q5.2 2.8 4.8 2.8L4.8 2.8Z"/><path id="mono14-372" d="M4.4 0.2L4.4 0.2Q3.3 0.2 2.6-0.2Q1.9-0.5 1.6-1.1Q1.3-1.7 1.2-2.3L1.2-2.3L2.3-2.6Q2.3-1.8 2.9-1.3Q3.4-0.8 4.3-0.8L4.3-0.8Q5.1-0.8 5.6-1.1Q6.0-1.4 6.0-2.0L6.0-2.0Q6.0-2.5 5.6-2.8Q5.1-3.1 4.1-3.1L4.1-3.1Q2.9-3.2 2.2-3.7Q1.6-4.2 1.6-5.1L1.6-5.1L1.6-5.2Q1.6-5.8 2.0-6.3Q2.3-6.7 2.9-6.9Q3.5-7.1 4.1-7.1L4.1-7.1Q5.0-7.1 5.6-6.8Q6.3-6.5 6.6-6.0Q6.9-5.5 7.0-5.0L7.0-5.0L5.9-4.7Q5.9-5.4 5.4-5.8Q4.9-6.2 4.2-6.2L4.2-6.2Q3.6-6.2 3.1-5.9Q2.7-5.7 2.7-5.2L2.7-5.2Q2.7-4.6 3.1-4.4Q3.5-4.1 4.6-4.0L4.6-4.0Q5.9-3.9 6.5-3.5Q7.1-3.0 7.1-2.0L7.1-2.0L7.1-2.0Q7.1-1.0 6.4-0.4Q5.6 0.2 4.4 0.2Z"/><path id="mono14-153" d="M4.9 0L3.7 0L3.7-8.7L0.8-8.7L0.8-9.8L7.7-9.8L7.7-8.7L4.9-8.7L4.9 0Z"/><path id="mono14-424" d="M6.3 2.8L2.3 2.8L2.3 1.8L5.9 1.8Q6.3 1.8 6.3 1.4L6.3 1.4L6.3-1.3L6.1-1.3Q5.8-0.6 5.2-0.2Q4.7 0.2 3.8 0.2L3.8 0.2Q2.7 0.2 1.9-0.6Q1.2-1.3 1.2-2.8L1.2-2.8L1.2-6.9L2.3-6.9L2.3-2.9Q2.3-1.8 2.8-1.3Q3.2-0.8 4.1-0.8L4.1-0.8Q5.1-0.8 5.7-1.5Q6.3-2.2 6.3-3.3L6.3-3.3L6.3-6.9L7.4-6.9L7.4 1.7Q7.4 2.2 7.0 2.5Q6.7 2.8 6.3 2.8L6.3 2.8Z"/><path id="mono14-361" d="M2.1 2.8L1.0 2.8L1.0-6.9L2.1-6.9L2.1-5.9L2.2-5.9Q2.6-6.5 3.2-6.8Q3.9-7.1 4.6-7.1L4.6-7.1Q5.5-7.1 6.2-6.7Q6.9-6.3 7.4-5.5Q7.8-4.7 7.8-3.6L7.8-3.6L7.8-3.3Q7.8-2.2 7.4-1.4Q7.0-0.6 6.2-0.2Q5.5 0.2 4.6 0.2L4.6 0.2Q3.9 0.2 3.3-0.1Q2.6-0.4 2.2-1.1L2.2-1.1L2.1-1.1L2.1 2.8ZM4.4-0.8L4.4-0.8Q5.4-0.8 6.0-1.5Q6.7-2.2 6.7-3.3L6.7-3.3L6.7-3.6Q6.7-4.4 6.4-4.9Q6.1-5.5 5.6-5.8Q5.0-6.1 4.4-6.1L4.4-6.1Q3.7-6.1 3.2-5.8Q2.7-5.4 2.4-4.9Q2.1-4.3 2.1-3.6L2.1-3.6L2.1-3.4Q2.1-2.6 2.4-2.0Q2.7-1.5 3.2-1.2Q3.7-0.8 4.4-0.8Z"/><path id="mono14-144" d="M4.5 0.2L4.5 0.2Q3.2 0.2 2.4-0.3Q1.5-0.7 1.1-1.6Q0.6-2.4 0.6-3.4L0.6-3.4L0.6-3.8L1.8-3.8L1.8-3.5Q1.8-2.2 2.5-1.5Q3.2-0.9 4.5-0.9L4.5-0.9Q5.6-0.9 6.1-1.4Q6.7-1.9 6.7-2.7L6.7-2.7L6.7-2.7Q6.7-3.5 6.1-3.9Q5.5-4.3 4.3-4.5L4.3-4.5Q2.8-4.7 1.9-5.3Q1.1-6.0 1.1-7.2L1.1-7.2L1.1-7.4Q1.1-8.2 1.5-8.7Q1.9-9.3 2.6-9.7Q3.3-10.0 4.3-10.0L4.3-10.0Q5.4-10.0 6.2-9.6Q6.9-9.2 7.4-8.5Q7.8-7.9 7.8-7.1L7.8-7.1L7.8-6.5L6.6-6.5L6.6-7.0Q6.6-7.6 6.3-8.0Q6.0-8.5 5.4-8.7Q4.9-8.9 4.3-8.9L4.3-8.9Q3.7-8.9 3.3-8.7Q2.8-8.5 2.5-8.2Q2.2-7.9 2.2-7.4L2.2-7.4L2.2-7.3Q2.2-6.5 2.9-6.1Q3.5-5.7 4.9-5.5L4.9-5.5Q6.4-5.3 7.1-4.6Q7.9-3.9 7.9-2.8L7.9-2.8L7.9-2.7Q7.9-1.4 7.0-0.6Q6.1 0.2 4.5 0.2Z"/><path id="mono14-245" d="M4.4 0.2L4.4 0.2Q3.4 0.2 2.6-0.2Q1.8-0.6 1.3-1.4Q0.8-2.2 0.8-3.4L0.8-3.4L0.8-3.5Q0.8-4.6 1.3-5.5Q1.8-6.3 2.6-6.7Q3.4-7.1 4.4-7.1L4.4-7.1Q5.3-7.1 6.0-6.8Q6.7-6.5 7.1-5.9Q7.6-5.3 7.7-4.5L7.7-4.5L6.6-4.2Q6.5-4.7 6.3-5.1Q6.0-5.6 5.5-5.8Q5.1-6.1 4.4-6.1L4.4-6.1Q3.7-6.1 3.2-5.8Q2.6-5.4 2.3-4.9Q1.9-4.3 1.9-3.5L1.9-3.5L1.9-3.4Q1.9-2.6 2.3-2.0Q2.6-1.4 3.2-1.1Q3.7-0.8 4.4-0.8L4.4-0.8Q5.1-0.8 5.6-1.1Q6.0-1.4 6.3-1.8Q6.6-2.2 6.6-2.7L6.6-2.7L7.7-2.5Q7.6-1.7 7.1-1.1Q6.7-0.5 6.0-0.1Q5.3 0.2 4.4 0.2Z"/><path id="mono14-364" d="M5.1 0L0.7 0L0.7-1.0L2.3-1.0L2.3-5.9L0.8-5.9L0.8-6.9L3.3-6.9L3.3-6.0L3.5-6.0Q3.8-6.6 4.3-6.9Q4.8-7.1 5.4-7.1L5.4-7.1Q6.4-7.1 7.1-6.5Q7.7-5.8 7.8-4.5L7.8-4.5L6.6-4.3Q6.6-5.3 6.2-5.7Q5.7-6.1 5.0-6.1L5.0-6.1Q4.2-6.1 3.8-5.5Q3.3-4.9 3.3-3.9L3.3-3.9L3.3-1.0L5.1-1.0L5.1 0Z"/><path id="mono14-292" d="M4.4-8.0L4.4-8.0Q4.0-8.0 3.7-8.3Q3.4-8.6 3.4-9.0L3.4-9.0Q3.4-9.4 3.7-9.7Q4.0-10.0 4.4-10.0L4.4-10.0Q4.8-10.0 5.0-9.7Q5.3-9.4 5.3-9.0L5.3-9.0Q5.3-8.6 5.0-8.3Q4.8-8.0 4.4-8.0ZM7.2 0L1.4 0L1.4-1.0L3.8-1.0L3.8-5.9L1.6-5.9L1.6-6.9L4.9-6.9L4.9-1.0L7.2-1.0L7.2 0Z"/><path id="mono14-134" d="M2.4 0L1.2 0L1.2-9.8L4.7-9.8Q5.7-9.8 6.4-9.4Q7.0-9.1 7.4-8.5Q7.7-7.9 7.7-7.1L7.7-7.1L7.7-6.7Q7.7-6.0 7.4-5.4Q7.0-4.8 6.3-4.4Q5.7-4.0 4.7-4.0L4.7-4.0L2.4-4.0L2.4 0ZM2.4-8.7L2.4-5.1L4.5-5.1Q6.5-5.1 6.5-6.8L6.5-6.8L6.5-7.1Q6.5-7.8 6.0-8.3Q5.5-8.7 4.5-8.7L4.5-8.7L2.4-8.7Z"/><path id="mono14-334" d="M4.3 0.2L4.3 0.2Q3.4 0.2 2.6-0.2Q1.8-0.6 1.3-1.4Q0.8-2.2 0.8-3.4L0.8-3.4L0.8-3.6Q0.8-4.7 1.3-5.5Q1.8-6.3 2.6-6.7Q3.4-7.1 4.3-7.1L4.3-7.1Q5.2-7.1 6.0-6.7Q6.8-6.3 7.3-5.5Q7.8-4.7 7.8-3.6L7.8-3.6L7.8-3.4Q7.8-2.2 7.3-1.4Q6.8-0.6 6.0-0.2Q5.2 0.2 4.3 0.2ZM4.3-0.8L4.3-0.8Q5.0-0.8 5.5-1.1Q6.0-1.5 6.3-2.0Q6.7-2.6 6.7-3.4L6.7-3.4L6.7-3.6Q6.7-4.3 6.3-4.9Q6.0-5.5 5.5-5.8Q4.9-6.1 4.3-6.1L4.3-6.1Q3.6-6.1 3.1-5.8Q2.5-5.5 2.2-4.9Q1.9-4.3 1.9-3.6L1.9-3.6L1.9-3.4Q1.9-2.6 2.2-2.0Q2.5-1.5 3.1-1.1Q3.6-0.8 4.3-0.8Z"/><path id="mono14-278" d="M6.5 2.8L2.0 2.8L2.0 1.8L6.1 1.8Q6.5 1.8 6.5 1.4L6.5 1.4L6.5-1.1L6.3-1.1Q6.0-0.4 5.4-0.1Q4.8 0.2 4.1 0.2L4.1 0.2Q3.2 0.2 2.4-0.2Q1.7-0.6 1.2-1.4Q0.7-2.2 0.7-3.4L0.7-3.4L0.7-3.6Q0.7-4.7 1.2-5.5Q1.7-6.3 2.5-6.7Q3.2-7.1 4.1-7.1L4.1-7.1Q4.9-7.1 5.4-6.8Q6.0-6.5 6.3-5.9L6.3-5.9L6.5-5.9L6.5-6.9L7.6-6.9L7.6 1.7Q7.6 2.2 7.3 2.5Q7.0 2.8 6.5 2.8L6.5 2.8ZM4.2-0.8L4.2-0.8Q4.8-0.8 5.4-1.2Q5.9-1.5 6.2-2.0Q6.5-2.6 6.5-3.4L6.5-3.4L6.5-3.6Q6.5-4.3 6.2-4.9Q5.9-5.4 5.3-5.8Q4.8-6.1 4.2-6.1L4.2-6.1Q3.5-6.1 3.0-5.8Q2.5-5.5 2.2-4.9Q1.8-4.3 1.8-3.6L1.8-3.6L1.8-3.4Q1.8-2.6 2.1-2.0Q2.5-1.5 3.0-1.1Q3.5-0.8 4.2-0.8Z"/><path id="mono14-136" d="M6.4 2.2L4.8 2.2Q4.3 2.2 4.0 1.9Q3.7 1.6 3.7 1.1L3.7 1.1L3.7 0.2Q2.4 0 1.6-1.0Q0.8-2.0 0.8-3.8L0.8-3.8L0.8-6.0Q0.8-7.9 1.8-8.9Q2.7-10.0 4.3-10.0L4.3-10.0Q5.9-10.0 6.8-8.9Q7.7-7.9 7.7-6.0L7.7-6.0L7.7-3.8Q7.7-2.0 7.0-1.0Q6.2 0.0 4.8 0.2L4.8 0.2L4.8 0.8Q4.8 1.2 5.2 1.2L5.2 1.2L6.4 1.2L6.4 2.2ZM4.3-0.9L4.3-0.9Q5.4-0.9 6.0-1.7Q6.6-2.5 6.6-3.9L6.6-3.9L6.6-5.9Q6.6-7.3 6.0-8.1Q5.4-8.9 4.3-8.9L4.3-8.9Q3.1-8.9 2.6-8.1Q2.0-7.3 2.0-5.9L2.0-5.9L2.0-3.9Q2.0-2.5 2.6-1.7Q3.1-0.9 4.3-0.9Z"/><path id="mono14-89" d="M7.5 0L1.2 0L1.2-9.8L2.4-9.8L2.4-1.1L7.5-1.1L7.5 0Z"/></defs><style>.tw{animation:tw 3s ease-in-out infinite}@keyframes tw{0%,100%{opacity:.2}50%{opacity:1}}@media (prefers-reduced-motion: reduce){*{animation:none!important}}</style><path d="M17 1H599V243L583 259H1V17Z" fill="#0B0B14" stroke="url(#holo)" stroke-width="2"/>
<g fill="#9AA0AE"><use href="#mono13-134" x="32" y="44"/><use href="#mono13-137" x="42" y="44"/><use href="#mono13-108" x="51.9" y="44"/><use href="#mono13-85" x="61.9" y="44"/><use href="#mono13-39" x="71.8" y="44"/><use href="#mono13-27" x="81.8" y="44"/><use href="#mono13-153" x="91.7" y="44"/><use href="#mono13-608" x="101.7" y="44"/><use href="#mono13-516" x="111.6" y="44"/><use href="#mono13-521" x="121.6" y="44"/></g>
<path d="M512.2 25H568V45L562 51H506.2V31Z" fill="none" stroke="#2DE2E6"/>
<g fill="#2DE2E6"><use href="#monoBold13-137" x="518.2" y="44"/><use href="#monoBold13-39" x="528.2" y="44"/><use href="#monoBold13-134" x="538.1" y="44"/><use href="#monoBold13-108" x="548.1" y="44"/></g>
<path d="M36.2 104L32.9 104L46.1 81.5L49.8 81.5L62.9 104L59.7 104L56.8 98.8L39.0 98.8L36.2 104ZM47.9 83.4L40.4 96.5L55.4 96.5L47.9 83.4ZM81.3 104L78.5 104L78.5 83.8L67.3 83.8L67.3 81.5L92.6 81.5L92.6 83.8L81.3 83.8L81.3 104ZM119.4 104L98.8 104L98.8 81.5L101.6 81.5L101.6 101.7L119.4 101.7L119.4 104ZM147.6 104L125.1 104L125.1 81.5L147.2 81.5L147.2 83.8L127.9 83.8L127.9 91.3L146.4 91.3L146.4 93.7L127.9 93.7L127.9 101.7L147.6 101.7L147.6 104ZM142.3 72.8L133.0 78.7L132.1 77.3L140.5 70.3L142.3 72.8ZM166.0 104L163.2 104L163.2 83.8L151.9 83.8L151.9 81.5L177.3 81.5L177.3 83.8L166.0 83.8L166.0 104ZM186.3 104L183.4 104L183.4 81.5L186.3 81.5L186.3 104ZM192.9 93.0L192.9 93.0L192.9 92.5Q192.9 89.5 193.2 87.4Q193.5 85.4 194.2 84.1Q195.0 82.9 196.2 82.2Q197.4 81.5 199.3 81.3Q201.2 81.0 203.8 81.0L203.8 81.0L209.7 81.0Q212.8 81.0 214.8 81.3Q216.9 81.6 218.2 82.4Q219.4 83.3 220.0 84.9Q220.6 86.6 220.6 89.2L220.6 89.2L217.8 89.2Q217.8 87.1 217.4 85.9Q217.0 84.8 216.1 84.2Q215.2 83.7 213.6 83.6Q212.1 83.5 209.7 83.5L209.7 83.5L203.8 83.5Q201.7 83.5 200.3 83.6Q198.9 83.7 198.0 84.2Q197.1 84.6 196.6 85.6Q196.1 86.5 195.9 88.2Q195.8 89.9 195.8 92.5L195.8 92.5L195.8 93.0Q195.8 95.5 195.9 97.2Q196.1 98.8 196.6 99.8Q197.1 100.8 198.0 101.3Q198.9 101.7 200.3 101.9Q201.7 102.0 203.8 102.0L203.8 102.0L209.7 102.0Q212.1 102.0 213.6 101.9Q215.2 101.8 216.1 101.3Q217.0 100.8 217.4 99.7Q217.8 98.5 217.8 96.4L217.8 96.4L220.6 96.4Q220.6 99.1 220.0 100.7Q219.4 102.3 218.2 103.1Q216.9 103.9 214.8 104.2Q212.8 104.5 209.7 104.5L209.7 104.5L203.8 104.5Q200.5 104.5 198.4 104.0Q196.3 103.6 195.1 102.4Q193.9 101.2 193.4 98.9Q192.9 96.7 192.9 93.0ZM228.7 104L225.4 104L238.6 81.5L242.3 81.5L255.4 104L252.1 104L249.3 98.8L231.5 98.8L228.7 104ZM240.4 83.4L232.9 96.5L247.9 96.5L240.4 83.4ZM274.5 104L271.7 104L271.7 81.5L292.9 81.5L292.9 83.8L274.5 83.8L274.5 91.3L292.1 91.3L292.1 93.7L274.5 93.7L274.5 104ZM301.8 104L299.0 104L299.0 81.5L301.8 81.5L301.8 104ZM312.3 104L309.5 104L309.5 81.5L324.6 81.5Q327.9 81.5 329.9 81.8Q331.9 82.1 332.9 82.9Q334.0 83.7 334.3 84.9Q334.7 86.2 334.7 88.1L334.7 88.1L334.7 88.7Q334.7 90.5 334.3 91.8Q334.0 93.1 332.9 93.8Q331.8 94.6 329.8 95.0Q327.8 95.3 324.5 95.3L324.5 95.3L312.3 95.3L312.3 104ZM331.9 88.7L331.9 88.1Q331.9 86.7 331.6 85.9Q331.4 85.1 330.6 84.6Q329.8 84.2 328.2 84.1Q326.7 83.9 324.0 83.9L324.0 83.9L312.3 83.9L312.3 92.9L324.0 92.9Q326.7 92.9 328.2 92.7Q329.8 92.6 330.6 92.1Q331.4 91.7 331.6 90.8Q331.9 90.0 331.9 88.7L331.9 88.7ZM343.5 104L340.7 104L340.7 81.5L355.7 81.5Q359.0 81.5 361.0 81.8Q363.1 82.1 364.1 82.9Q365.1 83.7 365.5 84.9Q365.9 86.2 365.9 88.1L365.9 88.1L365.9 88.7Q365.9 90.5 365.5 91.8Q365.1 93.1 364.1 93.8Q363.0 94.6 361.0 95.0Q358.9 95.3 355.6 95.3L355.6 95.3L343.5 95.3L343.5 104ZM363.1 88.7L363.1 88.1Q363.1 86.7 362.8 85.9Q362.5 85.1 361.7 84.6Q361.0 84.2 359.4 84.1Q357.8 83.9 355.2 83.9L355.2 83.9L343.5 83.9L343.5 92.9L355.2 92.9Q357.8 92.9 359.4 92.7Q361.0 92.6 361.7 92.1Q362.5 91.7 362.8 90.8Q363.1 90.0 363.1 88.7L363.1 88.7Z" fill="url(#chrome)"/>
<g fill="#E8ECF4"><use href="#mono18-144" x="32" y="146"/><use href="#mono18-216" x="43" y="146"/><use href="#mono18-313" x="54" y="146"/><use href="#mono18-257" x="65" y="146"/><use href="#mono18-372" x="76.1" y="146"/><use href="#mono18-321" x="98.1" y="146"/><use href="#mono18-216" x="109.1" y="146"/><use href="#mono18-324" x="120.1" y="146"/><use href="#mono18-216" x="131.1" y="146"/><use href="#mono18-278" x="142.2" y="146"/><use href="#mono18-257" x="153.2" y="146"/><use href="#mono18-321" x="164.2" y="146"/><use href="#mono18-257" x="175.2" y="146"/><use href="#mono18-324" x="186.2" y="146"/><use href="#mono18-382" x="197.2" y="146"/><use href="#mono18-372" x="219.3" y="146"/><use href="#mono18-424" x="230.3" y="146"/><use href="#mono18-372" x="241.3" y="146"/><use href="#mono18-382" x="252.3" y="146"/><use href="#mono18-257" x="263.3" y="146"/><use href="#mono18-321" x="274.4" y="146"/><use href="#mono18-277" x="296.4" y="146"/><use href="#mono18-334" x="307.4" y="146"/><use href="#mono18-364" x="318.4" y="146"/><use href="#mono18-216" x="340.4" y="146"/><use href="#mono18-391" x="32" y="174"/><use href="#mono18-324" x="43" y="174"/><use href="#mono18-292" x="54" y="174"/><use href="#mono18-415" x="65" y="174"/><use href="#mono18-257" x="76.1" y="174"/><use href="#mono18-364" x="87.1" y="174"/><use href="#mono18-372" x="98.1" y="174"/><use href="#mono18-292" x="109.1" y="174"/><use href="#mono18-382" x="120.1" y="174"/><use href="#mono18-424" x="131.1" y="174"/><use href="#mono18-216" x="153.2" y="174"/><use href="#mono18-382" x="164.2" y="174"/><use href="#mono18-286" x="175.2" y="174"/><use href="#mono18-313" x="186.2" y="174"/><use href="#mono18-257" x="197.2" y="174"/><use href="#mono18-382" x="208.3" y="174"/><use href="#mono18-292" x="219.3" y="174"/><use href="#mono18-245" x="230.3" y="174"/><use href="#mono18-372" x="241.3" y="174"/><use href="#mono18-245" x="263.3" y="174"/><use href="#mono18-313" x="274.4" y="174"/><use href="#mono18-391" x="285.4" y="174"/><use href="#mono18-243" x="296.4" y="174"/><use href="#mono18-588" x="307.4" y="174"/></g>
<g fill="none" stroke="#2DE2E6" stroke-opacity=".6"><path d="M39 204H116V227L109 234H32V211Z"/><path d="M133 204H235.7V227L228.7 234H126V211Z"/><path d="M252.7 204H355.4V227L348.4 234H245.7V211Z"/></g>
<g fill="#9AA0AE"><use href="#mono14-99" x="44" y="225"/><use href="#mono14-257" x="52.6" y="225"/><use href="#mono14-423" x="61.1" y="225"/><use href="#mono14-382" x="69.7" y="225"/><use href="#mono14-588" x="78.3" y="225"/><use href="#mono14-306" x="86.8" y="225"/><use href="#mono14-372" x="95.4" y="225"/><use href="#mono14-153" x="138" y="225"/><use href="#mono14-424" x="146.5" y="225"/><use href="#mono14-361" x="155.1" y="225"/><use href="#mono14-257" x="163.7" y="225"/><use href="#mono14-144" x="172.2" y="225"/><use href="#mono14-245" x="180.8" y="225"/><use href="#mono14-364" x="189.4" y="225"/><use href="#mono14-292" x="198" y="225"/><use href="#mono14-361" x="206.5" y="225"/><use href="#mono14-382" x="215.1" y="225"/><use href="#mono14-134" x="257.7" y="225"/><use href="#mono14-334" x="266.2" y="225"/><use href="#mono14-372" x="274.8" y="225"/><use href="#mono14-382" x="283.4" y="225"/><use href="#mono14-278" x="291.9" y="225"/><use href="#mono14-364" x="300.5" y="225"/><use href="#mono14-257" x="309.1" y="225"/><use href="#mono14-144" x="317.6" y="225"/><use href="#mono14-136" x="326.2" y="225"/><use href="#mono14-89" x="334.8" y="225"/></g>
<path class="tw" d="M560 84Q561.6 91.4 569 93Q561.6 94.6 560 102Q558.4 94.6 551 93Q558.4 91.4 560 84Z" fill="url(#holo)"/></svg>